<svg xmlns="http://www.w3.org/2000/svg" viewBox="0 0 161.56 155.94"><defs><style>.cls-1{fill:#fff;}</style></defs><title>close</title><g id="Layer_2" data-name="Layer 2"><g id="Layer_1-2" data-name="Layer 1"><path class="cls-1" d="M101,78.43l56.77-51.79a11.5,11.5,0,0,0,.74-16.25L155.18,6.7A11.5,11.5,0,0,0,138.93,6L81.22,58.61,26,3.37a11.5,11.5,0,0,0-16.26,0L6.18,6.9a11.5,11.5,0,0,0,0,16.26L60.51,77.5,3.75,129.3A11.5,11.5,0,0,0,3,145.54l3.37,3.69a11.5,11.5,0,0,0,16.25.74L80.33,97.32l55.24,55.24a11.5,11.5,0,0,0,16.26,0l3.54-3.54a11.5,11.5,0,0,0,0-16.26Z"/></g></g></svg>